<svg width="39" height="37" viewBox="0 0 39 37" fill="none" xmlns="http://www.w3.org/2000/svg">
<path d="M35.3628 36.3837L22.0628 23.6494C21.0072 24.458 19.7934 25.098 18.4211 25.5697C17.0489 26.0413 15.5887 26.2771 14.0406 26.2771C10.2054 26.2771 6.95956 25.0054 4.30308 22.4619C1.6466 19.9184 0.318359 16.8106 0.318359 13.1386C0.318359 9.46651 1.6466 6.35873 4.30308 3.81524C6.95956 1.27175 10.2054 0 14.0406 0C17.8758 0 21.1216 1.27175 23.7781 3.81524C26.4346 6.35873 27.7628 9.46651 27.7628 13.1386C27.7628 14.6209 27.5165 16.019 27.0239 17.3328C26.5313 18.6467 25.8628 19.8089 25.0184 20.8196L38.3184 33.5539L35.3628 36.3837ZM14.0406 22.2345C16.6795 22.2345 18.9225 21.3502 20.7697 19.5815C22.617 17.8129 23.5406 15.6652 23.5406 13.1386C23.5406 10.6119 22.617 8.46427 20.7697 6.69562C18.9225 4.92696 16.6795 4.04264 14.0406 4.04264C11.4017 4.04264 9.15864 4.92696 7.31142 6.69562C5.46419 8.46427 4.54058 10.6119 4.54058 13.1386C4.54058 15.6652 5.46419 17.8129 7.31142 19.5815C9.15864 21.3502 11.4017 22.2345 14.0406 22.2345Z" fill="#E2E1E4"/>
</svg>
